<svg width="16" height="15" viewBox="0 0 16 15" fill="none" xmlns="http://www.w3.org/2000/svg">
<path d="M0.313028 10.8603L5.63342 1.08003C6.48823 -0.359053 8.572 -0.360965 9.42796 1.08003L14.7481 10.8603C15.6219 12.3308 14.564 14.1929 12.8513 14.1929H2.2103C0.499028 14.1929 -0.560815 12.3323 0.313028 10.8603ZM7.53069 12.4279C8.01718 12.4279 8.41318 12.0319 8.41318 11.5454C8.41318 11.0589 8.01718 10.6629 7.53069 10.6629C7.0442 10.6629 6.6482 11.0589 6.6482 11.5454C6.6482 12.0319 7.0442 12.4279 7.53069 12.4279ZM6.6482 8.89793C6.6482 9.38442 7.0442 9.78042 7.53069 9.78042C8.01718 9.78042 8.41318 9.38442 8.41318 8.89793V4.48547C8.41318 3.99898 8.01718 3.60298 7.53069 3.60298C7.0442 3.60298 6.6482 3.99898 6.6482 4.48547V8.89793Z" fill="#FFBF75"/>
</svg>
