<svg width="17" height="16" viewBox="0 0 17 16" fill="none" xmlns="http://www.w3.org/2000/svg">
<path d="M1.02178 9.2402C1.09134 9.25246 1.16174 9.25811 1.23217 9.25712L13.2253 9.25712L12.9638 9.38916C12.7082 9.5205 12.4757 9.69925 12.2766 9.91733L8.91341 13.5683C8.47047 14.0273 8.39604 14.7657 8.73704 15.3178C9.13391 15.9062 9.895 16.034 10.437 15.6031C10.4808 15.5683 10.5224 15.5303 10.5616 15.4895L16.6433 8.8874C17.1185 8.37203 17.119 7.536 16.6442 7.02005L16.6433 7.01901L10.5616 0.416932C10.0859 -0.0979887 9.31575 -0.0968332 8.84138 0.419532C8.80405 0.460176 8.7692 0.503419 8.73704 0.548973C8.39605 1.10111 8.47047 1.83952 8.91341 2.29853L12.2705 5.95608C12.449 6.15002 12.6542 6.31263 12.8787 6.43803L13.2436 6.61629L1.29911 6.61629C0.677748 6.59124 0.132599 7.06242 0.0158679 7.72544C-0.0916644 8.44527 0.358686 9.12343 1.02178 9.2402Z" fill="black"/>
</svg>
