<svg width="15" height="13" viewBox="0 0 15 13" fill="none" xmlns="http://www.w3.org/2000/svg">
<path d="M14.0984 5.43603C14.037 5.42597 13.9749 5.42132 13.9128 5.42214H3.33058L3.56133 5.31368C3.78688 5.2058 3.99207 5.05897 4.16771 4.87985L7.13523 1.88098C7.52606 1.50395 7.59172 0.897436 7.29085 0.443911C6.94067 -0.039371 6.26912 -0.144304 5.79086 0.209574C5.75222 0.23818 5.7155 0.269362 5.68098 0.302916L0.31477 5.72582C-0.104599 6.14915 -0.104968 6.83586 0.313932 7.25965C0.3142 7.25993 0.314502 7.26023 0.31477 7.2605L5.68098 12.6834C6.10069 13.1064 6.78022 13.1054 7.19878 12.6813C7.23172 12.6479 7.26247 12.6124 7.29085 12.5749C7.59172 12.1214 7.52606 11.5149 7.13523 11.1379L4.17308 8.13359C4.01561 7.97429 3.83457 7.84072 3.63646 7.73772L3.31448 7.5913H13.8537C14.402 7.61187 14.883 7.22485 14.986 6.68025C15.0809 6.08899 14.6835 5.53195 14.0984 5.43603Z" fill="#4E66F8"/>
</svg>
