<svg width="889" height="157" viewBox="0 0 889 157" fill="none" xmlns="http://www.w3.org/2000/svg">
<g style="mix-blend-mode:multiply" opacity="0.2">
<path d="M444.398 -298.187C199.109 -298.187 0.482178 -99.5595 0.482178 145.729C0.482178 391.018 199.109 589.645 444.398 589.645C472.143 589.645 499.888 587.123 526.371 582.079C320.177 543.614 164.428 363.273 164.428 145.729C164.428 -8.75848 289.91 -134.24 444.398 -134.24C598.886 -134.24 724.368 -8.75848 724.368 145.729C724.368 271.211 641.764 377.776 527.633 413.088V413.718C552.855 421.285 579.969 425.699 608.345 425.699C762.832 425.699 888.314 300.217 888.314 145.729C888.314 -99.5595 689.687 -298.187 444.398 -298.187Z" fill="url(#paint0_linear)"/>
</g>
<defs>
<linearGradient id="paint0_linear" x1="900.792" y1="-199.538" x2="15.542" y2="-184.346" gradientUnits="userSpaceOnUse">
<stop stop-color="#E6A0FF"/>
<stop offset="1" stop-color="#615CF4"/>
</linearGradient>
</defs>
</svg>
