<svg width="1051" height="157" viewBox="0 0 1051 157" fill="none" xmlns="http://www.w3.org/2000/svg">
<g opacity="0.62">
<g style="mix-blend-mode:multiply" opacity="0.5">
<path d="M607.084 -388.187C579.339 -388.187 551.595 -385.664 525.111 -380.62C731.305 -342.156 887.054 -161.815 887.054 55.7293C887.054 210.217 761.572 335.699 607.084 335.699C452.596 335.699 327.114 210.217 327.114 55.7293C327.114 -69.7526 409.718 -176.318 523.85 -211.629V-212.26C498.627 -219.826 471.513 -224.24 443.138 -224.24C288.65 -224.24 163.168 -98.7585 163.168 55.7293C163.168 301.018 361.795 499.645 607.084 499.645C852.373 499.645 1051 301.018 1051 55.7293C1051 -189.559 851.742 -388.187 607.084 -388.187Z" fill="url(#paint0_linear)"/>
</g>
<g style="mix-blend-mode:multiply" opacity="0.2">
<path d="M444.398 -388.187C199.109 -388.187 0.482117 -189.559 0.482117 55.7293C0.482117 301.018 199.109 499.645 444.398 499.645C472.143 499.645 499.888 497.123 526.371 492.079C320.177 453.614 164.428 273.273 164.428 55.7293C164.428 -98.7585 289.91 -224.24 444.398 -224.24C598.886 -224.24 724.368 -98.7585 724.368 55.7293C724.368 181.211 641.764 287.776 527.632 323.088V323.718C552.855 331.285 579.969 335.699 608.344 335.699C762.832 335.699 888.314 210.217 888.314 55.7293C888.314 -189.559 689.687 -388.187 444.398 -388.187Z" fill="url(#paint1_linear)"/>
</g>
</g>
<defs>
<linearGradient id="paint0_linear" x1="1063.48" y1="-289.538" x2="178.228" y2="-274.346" gradientUnits="userSpaceOnUse">
<stop stop-color="#D251FF"/>
<stop offset="1" stop-color="#423DDF"/>
</linearGradient>
<linearGradient id="paint1_linear" x1="900.792" y1="-289.538" x2="15.5419" y2="-274.346" gradientUnits="userSpaceOnUse">
<stop stop-color="#E6A0FF"/>
<stop offset="1" stop-color="#615CF4"/>
</linearGradient>
</defs>
</svg>
