<svg width="556" height="135" viewBox="0 0 556 135" fill="none" xmlns="http://www.w3.org/2000/svg">
<g opacity="0.6">
<g style="mix-blend-mode:multiply" opacity="0.5">
<path d="M321.271 -52C306.6 -52 291.929 -50.6663 277.926 -47.9989C386.955 -27.6602 469.31 67.6986 469.31 182.729C469.31 264.418 402.959 330.769 321.271 330.769C239.582 330.769 173.231 264.418 173.231 182.729C173.231 116.378 216.909 60.0299 277.259 41.3583V41.0248C263.922 37.0238 249.585 34.6898 234.581 34.6898C152.892 34.6898 86.5413 101.041 86.5413 182.729C86.5413 312.431 191.569 417.459 321.271 417.459C450.972 417.459 556 312.431 556 182.729C556 53.028 450.639 -52 321.271 -52Z" fill="url(#paint0_linear)"/>
</g>
<g style="mix-blend-mode:multiply" opacity="0.2">
<path d="M235.247 -52C105.546 -52 0.517883 53.028 0.517883 182.729C0.517883 312.431 105.546 417.459 235.247 417.459C249.918 417.459 264.589 416.125 278.592 413.458C169.563 393.119 87.2077 297.76 87.2077 182.729C87.2077 101.041 153.559 34.6898 235.247 34.6898C316.936 34.6898 383.287 101.041 383.287 182.729C383.287 249.08 339.609 305.429 279.259 324.1V324.434C292.596 328.435 306.933 330.769 321.937 330.769C403.626 330.769 469.977 264.418 469.977 182.729C469.977 53.028 364.949 -52 235.247 -52Z" fill="url(#paint1_linear)"/>
</g>
</g>
<defs>
<linearGradient id="paint0_linear" x1="562.598" y1="0.16249" x2="94.5044" y2="8.19529" gradientUnits="userSpaceOnUse">
<stop stop-color="#D251FF"/>
<stop offset="1" stop-color="#423DDF"/>
</linearGradient>
<linearGradient id="paint1_linear" x1="476.574" y1="0.16249" x2="8.48107" y2="8.19529" gradientUnits="userSpaceOnUse">
<stop stop-color="#E6A0FF"/>
<stop offset="1" stop-color="#615CF4"/>
</linearGradient>
</defs>
</svg>