<svg width="150" height="150" viewBox="0 0 150 150" fill="none" xmlns="http://www.w3.org/2000/svg">
<path d="M75 150C116.421 150 150 116.421 150 75C150 33.5786 116.421 0 75 0C33.5786 0 0 33.5786 0 75C0 116.421 33.5786 150 75 150Z" fill="url(#paint0_linear)"/>
<path d="M129.18 43.1546C111.12 42.6296 93.0598 42.3671 75 42.3671V107.633C93.0598 107.633 111.12 107.37 129.18 106.845C129.374 106.517 129.484 106.145 129.491 105.761C129.908 85.2536 129.908 64.7458 129.491 44.238C129.483 43.8548 129.374 43.4824 129.18 43.1546Z" fill="url(#paint1_linear)"/>
<path d="M20.5086 44.2384C20.0923 64.7462 20.0923 85.254 20.5086 105.762C20.5163 106.146 20.6258 106.518 20.8204 106.845C36.9225 107.313 53.0244 107.573 69.1265 107.624C52.9763 85.8238 36.479 63.9168 20.8204 43.1547C20.6255 43.4822 20.5166 43.8546 20.5086 44.2384Z" fill="url(#paint2_linear)"/>
<path d="M83.9537 42.3888C62.9091 42.2877 41.8646 42.5429 20.8204 43.1549C27.7051 65.2067 38.2558 86.9983 51.2188 107.481C62.1304 107.621 73.0421 107.664 83.9537 107.612C84.0272 85.8707 84.0272 64.1297 83.9537 42.3888Z" fill="url(#paint3_linear)"/>
<path d="M75 9.75848C80.8593 20.632 86.8652 31.563 92.9077 42.4652C87.0117 53.2529 81.0058 64.1265 75 75C56.8292 64.1224 38.6584 53.2447 20.8204 43.1546C21.0123 42.8206 21.2926 42.5314 21.6372 42.3223C39.2578 31.5703 56.7688 20.5878 73.8717 10.0805C74.2207 9.86659 74.6103 9.75848 75 9.75848Z" fill="url(#paint4_linear)"/>
<path d="M128.363 42.3223C128.707 42.5314 128.988 42.8206 129.18 43.1546C111.342 53.2447 93.1708 64.1224 75 75C75 53.2529 75 31.5056 75 9.75848C75.3896 9.75819 75.7793 9.86659 76.1282 10.0805C93.2312 20.5878 110.742 31.5703 128.363 42.3223Z" fill="url(#paint5_linear)"/>
<path d="M20.8204 106.845C21.0123 107.179 21.2926 107.468 21.6372 107.678C39.2578 118.43 56.7688 129.412 73.8717 139.92C74.2207 140.134 74.6103 140.242 75 140.242C69.2619 124.868 63.3211 109.44 57.3925 94.0735C52.6365 94.0474 47.8804 94.0108 43.1241 93.9636C35.6481 98.3552 28.2058 102.668 20.8204 106.845Z" fill="url(#paint6_linear)"/>
<path d="M75 75C64.3524 81.3738 53.7047 87.748 43.1241 93.9636C52.3489 110.301 63.1907 126.011 75 140.242C80.8594 129.368 86.8653 118.437 92.9077 107.535C87.0117 96.7474 81.0059 85.8735 75 75Z" fill="url(#paint7_linear)"/>
<path d="M129.18 106.845C128.988 107.179 128.707 107.468 128.363 107.678C110.742 118.43 93.2312 129.412 76.1282 139.92C75.7793 140.134 75.3899 140.242 75 140.242C75 118.495 75 96.7474 75 75.0004C93.1708 85.8777 111.342 96.7553 129.18 106.845Z" fill="url(#paint8_linear)"/>
<path fill-rule="evenodd" clip-rule="evenodd" d="M38.3162 53.2215C52.0415 53.0404 65.7665 52.9608 79.4918 52.983C79.5085 67.661 79.5085 82.3388 79.4918 97.0168C67.9201 97.0356 56.3482 96.9819 44.7765 96.8563C44.7765 96.8562 44.7764 96.8562 44.7764 96.8561C42.623 96.8327 40.4696 96.8068 38.3162 96.7784C38.2793 92.8324 38.2523 88.8867 38.235 84.9407C38.2352 84.9408 38.2354 84.941 38.2356 84.9411C38.2355 84.9409 38.2354 84.9408 38.2354 84.9406C38.19 74.3674 38.2169 63.7947 38.3162 53.2215Z" fill="#865CFF"/>
<path d="M75 52.9796V97.0204C87.2279 97.0204 99.4559 96.9399 111.684 96.7784C111.82 82.2595 111.82 67.7405 111.684 53.2216C99.4559 53.0602 87.2279 52.9796 75 52.9796Z" fill="#C4B0FF"/>
<path d="M75 30.9592C79.4543 38.2993 83.9587 45.6613 88.4757 53.0122C84.0088 60.3197 79.5044 67.66 75 75C62.7381 67.66 50.4762 60.3197 38.3162 53.2216C50.6124 45.8007 62.8743 38.2993 75 30.9592Z" fill="#7B4EFF"/>
<path d="M111.684 53.2216C99.5238 60.32 87.2619 67.66 75 75C75 60.3197 75 45.6396 75 30.9592C87.1257 38.2996 99.3876 45.8007 111.684 53.2216Z" fill="#D9CCFF"/>
<path fill-rule="evenodd" clip-rule="evenodd" d="M75.1398 75.2279C79.5976 82.4922 84.055 89.756 88.4757 96.9879C83.9587 104.339 79.4543 111.701 75 119.041C69.7049 115.836 64.3839 112.6 59.0454 109.353C55.4814 107.185 51.9096 105.013 48.3325 102.842C48.3325 102.842 48.3325 102.842 48.3325 102.842C44.9977 100.818 41.6581 98.7952 38.3162 96.7784C39.9173 95.8441 41.5198 94.9052 43.1238 93.9633C43.1239 93.9633 43.1239 93.9633 43.124 93.9633C43.1239 93.9632 43.1239 93.9631 43.1238 93.963C53.7047 87.7477 64.3524 81.3738 75 75L75.1398 75.2279Z" fill="#9774FF"/>
<path d="M111.684 96.7784C99.3879 104.199 87.1257 111.701 75 119.041C75 104.36 75 89.6801 75 75C87.2619 82.34 99.5238 89.6804 111.684 96.7784Z" fill="#AA8CFF"/>
<defs>
<linearGradient id="paint0_linear" x1="139" y1="-0.000273249" x2="-88.6352" y2="-39.0424" gradientUnits="userSpaceOnUse">
<stop stop-color="#CE3CF2"/>
<stop offset="1" stop-color="#406EFB"/>
</linearGradient>
<linearGradient id="paint1_linear" x1="102.384" y1="148.748" x2="102.384" y2="48.8053" gradientUnits="userSpaceOnUse">
<stop stop-color="#D55EFF"/>
<stop offset="1" stop-color="#FECDFF"/>
</linearGradient>
<linearGradient id="paint2_linear" x1="44.646" y1="148.238" x2="44.646" y2="49.5143" gradientUnits="userSpaceOnUse">
<stop stop-color="#D55EFF"/>
<stop offset="1" stop-color="#FECDFF"/>
</linearGradient>
<linearGradient id="paint3_linear" x1="52.3946" y1="148.749" x2="52.3946" y2="48.8056" gradientUnits="userSpaceOnUse">
<stop stop-color="#D55EFF"/>
<stop offset="1" stop-color="#FFE9FF"/>
</linearGradient>
<linearGradient id="paint4_linear" x1="56.8413" y1="116.101" x2="56.8413" y2="16.1943" gradientUnits="userSpaceOnUse">
<stop stop-color="#B31DE7"/>
<stop offset="0.216" stop-color="#C63FED"/>
<stop offset="0.5775" stop-color="#E473F7"/>
<stop offset="0.8501" stop-color="#F694FD"/>
<stop offset="1" stop-color="#FDA0FF"/>
</linearGradient>
<linearGradient id="paint5_linear" x1="102.073" y1="116.101" x2="102.073" y2="16.1943" gradientUnits="userSpaceOnUse">
<stop stop-color="#D55EFF"/>
<stop offset="1" stop-color="#FECDFF"/>
</linearGradient>
<linearGradient id="paint6_linear" x1="47.8931" y1="169.396" x2="47.8931" y2="98.5288" gradientUnits="userSpaceOnUse">
<stop stop-color="#D55EFF"/>
<stop offset="1" stop-color="#FECDFF"/>
</linearGradient>
<linearGradient id="paint7_linear" x1="68.0002" y1="181.342" x2="68.0002" y2="81.4358" gradientUnits="userSpaceOnUse">
<stop stop-color="#D55EFF"/>
<stop offset="1" stop-color="#FECDFF"/>
</linearGradient>
<linearGradient id="paint8_linear" x1="102.073" y1="181.343" x2="102.073" y2="81.4362" gradientUnits="userSpaceOnUse">
<stop stop-color="#D55EFF"/>
<stop offset="1" stop-color="#FECDFF"/>
</linearGradient>
</defs>
</svg>
