<svg width="150" height="150" viewBox="0 0 150 150" fill="none" xmlns="http://www.w3.org/2000/svg">
<path d="M75 150C116.421 150 150 116.421 150 75C150 33.5786 116.421 0 75 0C33.5786 0 0 33.5786 0 75C0 116.421 33.5786 150 75 150Z" fill="url(#paint0_linear)"/>
<path d="M23.9224 119.863C25.9696 121.959 28.0412 124.03 30.1371 126.078C31.8718 127.771 34.7332 127.713 36.4995 125.97C41.8321 120.702 47.1589 115.428 52.4798 110.148C51.4072 104.923 50.364 99.6421 49.3327 94.3312C40.8551 102.835 32.3851 111.345 23.9224 119.863Z" fill="url(#paint1_linear)"/>
<path d="M39.8519 97.5202C34.5723 102.841 29.2983 108.168 24.0299 113.501C22.2867 115.267 22.2284 118.128 23.9221 119.863C25.616 121.598 28.4373 121.561 30.1963 119.803L52.4918 97.5079C48.2566 97.5194 44.039 97.5258 39.8519 97.5202Z" fill="url(#paint2_linear)"/>
<path d="M100.71 42.9758C102.829 45.0659 104.934 47.1706 107.024 49.2896C108.754 51.0439 108.727 53.91 106.979 55.6716C101.697 60.9905 96.4096 66.3035 91.1162 71.6109C85.8319 70.5372 80.5216 69.479 75.2112 68.419C83.7038 59.9308 92.2034 51.4497 100.71 42.9758Z" fill="url(#paint3_linear)"/>
<path d="M78.389 58.8835C83.6965 53.5902 89.0094 48.3024 94.3283 43.0204C96.0896 41.2723 98.9557 41.2462 100.71 42.9759C102.465 44.7053 102.451 47.5483 100.693 49.307C93.2616 56.7387 85.8296 64.1707 78.3978 71.6025C78.3975 67.3562 78.3972 63.1122 78.389 58.8835Z" fill="url(#paint4_linear)"/>
<path d="M46.1218 103.878C48.2265 105.983 50.3458 108.073 52.4798 110.148C65.3924 97.3359 78.271 84.4904 91.1165 71.6109C89.0051 69.4799 86.889 67.3535 84.7676 65.2324C82.6453 65.2336 80.521 65.2351 78.3964 65.2365C67.6371 75.9861 56.8898 86.7475 46.154 97.5205C46.1423 99.6442 46.1311 101.764 46.1218 103.878Z" fill="url(#paint5_linear)"/>
<path d="M84.7676 65.2325C82.6462 63.1111 80.5201 60.995 78.389 58.8835C65.5098 71.7288 52.664 84.6077 39.8519 97.5203C41.9273 99.6542 44.0171 101.774 46.1218 103.878L84.7676 65.2325Z" fill="url(#paint6_linear)"/>
<path opacity="0.4" d="M123.233 28.7441C122.142 30.8051 121.054 32.8694 119.966 34.9363C121.003 36.9891 122.03 39.0551 123.049 41.1337C123.689 42.4424 122.303 43.8499 121.041 43.1666C119.034 42.0824 117.013 41.0083 114.98 39.9434C112.925 41.0283 110.866 42.1125 108.805 43.1962C107.509 43.8774 106.123 42.4905 106.804 41.1947C107.887 39.1333 108.971 37.075 110.056 35.0201C108.991 32.9866 107.917 30.9657 106.833 28.9588C106.15 27.697 107.558 26.3107 108.866 26.9505C110.944 27.9698 113.011 28.9972 115.063 30.034C117.13 28.9462 119.195 27.8573 121.256 26.7671C122.554 26.0807 123.919 27.4462 123.233 28.7441Z" fill="white"/>
<path opacity="0.4" d="M91.2601 26.1073C90.1943 28.1165 89.1279 30.1324 88.0603 32.1542C89.175 34.1516 90.281 36.1608 91.379 38.1808C92.069 39.452 90.6651 40.8427 89.3511 40.1859C87.2613 39.1432 85.1652 38.1044 83.064 37.0684C80.9862 38.1375 78.9106 39.2047 76.8375 40.2697C75.5338 40.9397 74.1059 39.5736 74.7709 38.3015C75.8294 36.2786 76.8864 34.2615 77.942 32.2514C76.8152 30.2584 75.6797 28.2764 74.5345 26.3074C73.8135 25.0684 75.1978 23.7243 76.5399 24.3565C78.6709 25.3631 80.7979 26.3715 82.919 27.3835C85.0002 26.3226 87.0844 25.2589 89.1706 24.193C90.4846 23.5227 91.9316 24.8425 91.2601 26.1073Z" fill="white"/>
<path opacity="0.4" d="M123.893 58.74C121.884 59.8058 119.868 60.8722 117.846 61.9398C115.848 60.825 113.839 59.7191 111.819 58.621C110.548 57.9311 109.157 59.335 109.814 60.6489C110.857 62.7387 111.896 64.8349 112.932 66.9361C111.863 69.0138 110.795 71.0895 109.73 73.1625C109.06 74.4662 110.426 75.8942 111.698 75.2291C113.721 74.1706 115.739 73.1136 117.749 72.058C119.742 73.1848 121.724 74.3203 123.693 75.4655C124.932 76.1865 126.276 74.802 125.643 73.4602C124.637 71.3291 123.628 69.2022 122.617 67.0811C123.677 64.9998 124.741 62.9156 125.807 60.8294C126.477 59.5154 125.157 58.0685 123.893 58.74Z" fill="white"/>
<defs>
<linearGradient id="paint0_linear" x1="138" y1="-65" x2="-96.4874" y2="-19.3713" gradientUnits="userSpaceOnUse">
<stop stop-color="#CE3CF2"/>
<stop offset="1" stop-color="#406EFB"/>
</linearGradient>
<linearGradient id="paint1_linear" x1="38.1905" y1="133.211" x2="38.1905" y2="71.4802" gradientUnits="userSpaceOnUse">
<stop stop-color="#FDA0FF"/>
<stop offset="0.1045" stop-color="#FDB0FF"/>
<stop offset="0.3578" stop-color="#FED2FF"/>
<stop offset="0.5984" stop-color="#FFEBFF"/>
<stop offset="0.8188" stop-color="#FFFAFF"/>
<stop offset="1" stop-color="white"/>
</linearGradient>
<linearGradient id="paint2_linear" x1="37.5789" y1="133.12" x2="37.5789" y2="90.5281" gradientUnits="userSpaceOnUse">
<stop stop-color="#FDA0FF"/>
<stop offset="0.0153" stop-color="#FDA3FF"/>
<stop offset="0.1973" stop-color="#FEC4FF"/>
<stop offset="0.3847" stop-color="#FEDEFF"/>
<stop offset="0.5772" stop-color="#FFF0FF"/>
<stop offset="0.7779" stop-color="#FFFBFF"/>
<stop offset="1" stop-color="white"/>
</linearGradient>
<linearGradient id="paint3_linear" x1="91.7461" y1="77.779" x2="91.7461" y2="12.9456" gradientUnits="userSpaceOnUse">
<stop stop-color="#FDA0FF"/>
<stop offset="0.0153" stop-color="#FDA3FF"/>
<stop offset="0.1973" stop-color="#FEC4FF"/>
<stop offset="0.3847" stop-color="#FEDEFF"/>
<stop offset="0.5772" stop-color="#FFF0FF"/>
<stop offset="0.7779" stop-color="#FFFBFF"/>
<stop offset="1" stop-color="white"/>
</linearGradient>
<linearGradient id="paint4_linear" x1="90.1913" y1="76.6171" x2="90.1913" y2="36.8417" gradientUnits="userSpaceOnUse">
<stop stop-color="#FDA0FF"/>
<stop offset="0.0153" stop-color="#FDA3FF"/>
<stop offset="0.1973" stop-color="#FEC4FF"/>
<stop offset="0.3847" stop-color="#FEDEFF"/>
<stop offset="0.5772" stop-color="#FFF0FF"/>
<stop offset="0.7779" stop-color="#FFFBFF"/>
<stop offset="1" stop-color="white"/>
</linearGradient>
<linearGradient id="paint5_linear" x1="68.6039" y1="123.478" x2="68.6041" y2="59.9921" gradientUnits="userSpaceOnUse">
<stop stop-color="#B31DE7"/>
<stop offset="0.6317" stop-color="#E16EF6"/>
<stop offset="1" stop-color="#FDA0FF"/>
</linearGradient>
<linearGradient id="paint6_linear" x1="62.2956" y1="132.224" x2="62.2956" y2="63.3221" gradientUnits="userSpaceOnUse">
<stop stop-color="#B31DE7"/>
<stop offset="0.216" stop-color="#C63FED"/>
<stop offset="0.5775" stop-color="#E473F7"/>
<stop offset="0.8501" stop-color="#F694FD"/>
<stop offset="1" stop-color="#FDA0FF"/>
</linearGradient>
</defs>
</svg>
