<svg width="60" height="60" viewBox="0 0 60 60" fill="none" xmlns="http://www.w3.org/2000/svg">
<rect width="60" height="60" fill="#E5E5E5"/>
<g clip-path="url(#clip0)">
<rect width="1534" height="881" transform="translate(-1085 -195)" fill="#F9F9F8"/>
<g filter="url(#filter0_d)">
<path d="M-994 -62C-994 -66.4183 -990.418 -70 -986 -70H351C355.418 -70 359 -66.4183 359 -62V113C359 117.418 355.418 121 351 121H-986C-990.418 121 -994 117.418 -994 113V-62Z" fill="white"/>
</g>
<circle opacity="0.22" cx="30" cy="30" r="30" fill="#5D5CF4"/>
<ellipse cx="36.3483" cy="18.4352" rx="9.62578" ry="4.21128" fill="#575FF5"/>
<path fill-rule="evenodd" clip-rule="evenodd" d="M45.5755 21.4432C44.3921 23.1828 40.7088 24.4513 36.3483 24.4513C31.9878 24.4513 28.3045 23.1828 27.1211 21.4432C26.8618 21.8245 26.7225 22.2283 26.7225 22.6464C26.7225 24.9723 31.0321 26.8577 36.3483 26.8577C41.6645 26.8577 45.9741 24.9723 45.9741 22.6464C45.9741 22.2283 45.8348 21.8245 45.5755 21.4432Z" fill="#575FF5" fill-opacity="0.4"/>
<path fill-rule="evenodd" clip-rule="evenodd" d="M45.5755 25.401C44.3921 27.1405 40.7088 28.409 36.3483 28.409C31.9878 28.409 28.3045 27.1405 27.1212 25.401C26.8618 25.7822 26.7225 26.1861 26.7225 26.6042C26.7225 28.93 31.0321 30.8155 36.3483 30.8155C41.6645 30.8155 45.9741 28.93 45.9741 26.6042C45.9741 26.1861 45.8348 25.7822 45.5755 25.401Z" fill="#575FF5" fill-opacity="0.4"/>
<ellipse cx="19.2526" cy="27.8074" rx="9.62578" ry="4.21128" fill="#575FF5"/>
<path fill-rule="evenodd" clip-rule="evenodd" d="M28.4798 30.8154C27.2964 32.555 23.6131 33.8235 19.2526 33.8235C14.8921 33.8235 11.2088 32.555 10.0254 30.8154C9.7661 31.1967 9.62683 31.6005 9.62683 32.0186C9.62683 34.3445 13.9364 36.2299 19.2526 36.2299C24.5688 36.2299 28.8784 34.3445 28.8784 32.0186C28.8784 31.6005 28.7391 31.1967 28.4798 30.8154Z" fill="#575FF5" fill-opacity="0.4"/>
<path fill-rule="evenodd" clip-rule="evenodd" d="M28.4798 34.7731C27.2964 36.5126 23.6131 37.7811 19.2526 37.7811C14.8921 37.7811 11.2088 36.5126 10.0255 34.7731C9.7661 35.1543 9.62683 35.5582 9.62683 35.9763C9.62683 38.3022 13.9364 40.1876 19.2526 40.1876C24.5688 40.1876 28.8784 38.3022 28.8784 35.9763C28.8784 35.5582 28.7391 35.1543 28.4798 34.7731Z" fill="#575FF5" fill-opacity="0.4"/>
<ellipse cx="37.4069" cy="33.3959" rx="9.62578" ry="4.21128" fill="#575FF5"/>
<path fill-rule="evenodd" clip-rule="evenodd" d="M46.6341 36.4039C45.4507 38.1435 41.7674 39.412 37.4069 39.412C33.0464 39.412 29.3631 38.1435 28.1797 36.4039C27.9204 36.7852 27.7811 37.189 27.7811 37.6071C27.7811 39.933 32.0907 41.8184 37.4069 41.8184C42.7231 41.8184 47.0327 39.933 47.0327 37.6071C47.0327 37.189 46.8934 36.7852 46.6341 36.4039Z" fill="#575FF5" fill-opacity="0.4"/>
<path fill-rule="evenodd" clip-rule="evenodd" d="M46.6341 40.3616C45.4507 42.1011 41.7674 43.3696 37.4069 43.3696C33.0464 43.3696 29.3631 42.1011 28.1798 40.3616C27.9204 40.7428 27.7811 41.1467 27.7811 41.5648C27.7811 43.8906 32.0907 45.7761 37.4069 45.7761C42.7231 45.7761 47.0327 43.8906 47.0327 41.5648C47.0327 41.1467 46.8934 40.7428 46.6341 40.3616Z" fill="#575FF5" fill-opacity="0.4"/>
</g>
<defs>
<filter id="filter0_d" x="-997" y="-72" width="1359" height="197" filterUnits="userSpaceOnUse" color-interpolation-filters="sRGB">
<feFlood flood-opacity="0" result="BackgroundImageFix"/>
<feColorMatrix in="SourceAlpha" type="matrix" values="0 0 0 0 0 0 0 0 0 0 0 0 0 0 0 0 0 0 127 0"/>
<feOffset dy="1"/>
<feGaussianBlur stdDeviation="1.5"/>
<feColorMatrix type="matrix" values="0 0 0 0 0 0 0 0 0 0 0 0 0 0 0 0 0 0 0.15 0"/>
<feBlend mode="normal" in2="BackgroundImageFix" result="effect1_dropShadow"/>
<feBlend mode="normal" in="SourceGraphic" in2="effect1_dropShadow" result="shape"/>
</filter>
<clipPath id="clip0">
<rect width="1534" height="881" fill="white" transform="translate(-1085 -195)"/>
</clipPath>
</defs>
</svg>
