<svg width="888" height="157" viewBox="0 0 888 157" fill="none" xmlns="http://www.w3.org/2000/svg">
<g style="mix-blend-mode:multiply" opacity="0.5">
<path d="M444.084 -298.187C416.339 -298.187 388.595 -295.664 362.111 -290.62C568.305 -252.156 724.054 -71.8147 724.054 145.729C724.054 300.217 598.572 425.699 444.084 425.699C289.596 425.699 164.114 300.217 164.114 145.729C164.114 20.2474 246.718 -86.3176 360.85 -121.629V-122.26C335.627 -129.826 308.513 -134.24 280.138 -134.24C125.65 -134.24 0.168091 -8.75848 0.168091 145.729C0.168091 391.018 198.795 589.645 444.084 589.645C689.373 589.645 888 391.018 888 145.729C888 -99.5595 688.742 -298.187 444.084 -298.187Z" fill="url(#paint0_linear)"/>
</g>
<defs>
<linearGradient id="paint0_linear" x1="900.478" y1="-199.538" x2="15.2279" y2="-184.346" gradientUnits="userSpaceOnUse">
<stop stop-color="#D251FF"/>
<stop offset="1" stop-color="#423DDF"/>
</linearGradient>
</defs>
</svg>
