<svg width="148" height="125" viewBox="0 0 148 125" fill="none" xmlns="http://www.w3.org/2000/svg">
<g style="mix-blend-mode:multiply">
<path d="M85.4048 0C81.4985 0 77.5923 0.355111 73.8636 1.06534C102.894 6.48082 124.822 31.8714 124.822 62.5C124.822 84.2507 107.156 101.918 85.4048 101.918C63.6541 101.918 45.9872 84.2507 45.9872 62.5C45.9872 44.8331 57.6171 29.8295 73.686 24.858V24.7692C70.1349 23.7038 66.3174 23.0824 62.3224 23.0824C40.5717 23.0824 22.9048 40.7493 22.9048 62.5C22.9048 97.0348 50.87 125 85.4048 125C119.94 125 147.905 97.0348 147.905 62.5C147.905 27.9652 119.851 0 85.4048 0Z" fill="url(#paint0_linear)"/>
</g>
<g style="mix-blend-mode:multiply">
<path d="M62.5 0C27.9652 0 0 27.9652 0 62.5C0 97.0348 27.9652 125 62.5 125C66.4063 125 70.3125 124.645 74.0412 123.935C45.0107 118.519 23.0824 93.1286 23.0824 62.5C23.0824 40.7493 40.7493 23.0824 62.5 23.0824C84.2507 23.0824 101.918 40.7493 101.918 62.5C101.918 80.1669 90.2877 95.1705 74.2188 100.142V100.231C77.7699 101.296 81.5874 101.918 85.5824 101.918C107.333 101.918 125 84.2507 125 62.5C125 27.9652 97.0348 0 62.5 0Z" fill="url(#paint1_linear)"/>
</g>
<defs>
<linearGradient id="paint0_linear" x1="270" y1="11.4999" x2="69.2233" y2="-43.1899" gradientUnits="userSpaceOnUse">
<stop stop-color="#FFA0A0"/>
<stop offset="1" stop-color="#EA4444"/>
</linearGradient>
<linearGradient id="paint1_linear" x1="126.757" y1="13.889" x2="2.12031" y2="16.0278" gradientUnits="userSpaceOnUse">
<stop stop-color="#FFA0A0"/>
<stop offset="1" stop-color="#F45C5C"/>
</linearGradient>
</defs>
</svg>
