<svg width="15" height="15" viewBox="0 0 15 15" fill="none" xmlns="http://www.w3.org/2000/svg">
<path d="M14.172 1.69673e-08H0.827271C0.370331 0.000274676 -9.15358e-05 0.37088 1.69673e-08 0.828003V14.1727C0.000274676 14.6297 0.37088 15.0001 0.828003 15H8.0127V9.19922H6.06445V6.92871H8.0127V5.25778C8.0127 3.32007 9.19565 2.26538 10.9242 2.26538C11.7521 2.26538 12.4635 2.32709 12.6709 2.35464V4.37988H11.479C10.5385 4.37988 10.3564 4.82675 10.3564 5.48264V6.92871H12.605L12.312 9.19922H10.3564V15H14.172C14.6292 15.0001 14.9999 14.6296 15 14.1724C15 14.1723 15 14.1722 15 14.172V0.827271C14.9998 0.370331 14.6291 -9.15358e-05 14.172 1.69673e-08Z" fill="#3A72FD"/>
</svg>
