<svg width="49" height="41" viewBox="0 0 49 41" fill="none" xmlns="http://www.w3.org/2000/svg">
<g style="mix-blend-mode:multiply">
<path d="M28.0128 0C26.7315 0 25.4503 0.116476 24.2273 0.349431C33.7493 2.12571 40.9418 10.4538 40.9418 20.5C40.9418 27.6342 35.147 33.429 28.0128 33.429C20.8786 33.429 15.0838 27.6342 15.0838 20.5C15.0838 14.7053 18.8985 9.78409 24.1691 8.15341V8.12429C23.0043 7.77486 21.7521 7.57102 20.4418 7.57102C13.3075 7.57102 7.5128 13.3658 7.5128 20.5C7.5128 31.8274 16.6854 41 28.0128 41C39.3402 41 48.5128 31.8274 48.5128 20.5C48.5128 9.17258 39.3111 0 28.0128 0Z" fill="url(#paint0_linear)"/>
</g>
<g style="mix-blend-mode:multiply">
<path d="M20.5 0C9.17259 0 0 9.17258 0 20.5C0 31.8274 9.17259 41 20.5 41C21.7813 41 23.0625 40.8835 24.2855 40.6506C14.7635 38.8743 7.57102 30.5462 7.57102 20.5C7.57102 13.3658 13.3658 7.57102 20.5 7.57102C27.6342 7.57102 33.429 13.3658 33.429 20.5C33.429 26.2947 29.6144 31.2159 24.3438 32.8466V32.8757C25.5085 33.2251 26.7607 33.429 28.071 33.429C35.2053 33.429 41 27.6342 41 20.5C41 9.17258 31.8274 0 20.5 0Z" fill="url(#paint1_linear)"/>
</g>
<defs>
<linearGradient id="paint0_linear" x1="49.089" y1="4.55559" x2="8.20826" y2="5.25713" gradientUnits="userSpaceOnUse">
<stop stop-color="#D251FF"/>
<stop offset="1" stop-color="#423DDF"/>
</linearGradient>
<linearGradient id="paint1_linear" x1="41.5762" y1="4.55559" x2="0.695462" y2="5.25713" gradientUnits="userSpaceOnUse">
<stop stop-color="#E6A0FF"/>
<stop offset="1" stop-color="#615CF4"/>
</linearGradient>
</defs>
</svg>
