<svg width="137" height="34" viewBox="0 0 137 34" fill="none" xmlns="http://www.w3.org/2000/svg">
<path d="M1.9375 22.6266H3.875V15.4703H10.8125V13.7516H3.875V8.34534H11.5313V6.62659H1.9375V22.6266ZM17.4709 22.9078C19.5646 22.9078 20.6584 21.7828 21.0334 21.0016H21.1271V22.6266H22.9709V14.7203C22.9709 10.9078 20.0646 10.4703 18.5334 10.4703C16.7209 10.4703 14.6584 11.0953 13.7209 13.2828L15.4709 13.9078C15.8771 13.0328 16.838 12.0953 18.5959 12.0953C20.2912 12.0953 21.1271 12.9938 21.1271 14.5328V14.5953C21.1271 15.486 20.2209 15.4078 18.0334 15.6891C15.8068 15.9781 13.3771 16.4703 13.3771 19.2203C13.3771 21.5641 15.1896 22.9078 17.4709 22.9078ZM17.7521 21.2516C16.2834 21.2516 15.2209 20.5953 15.2209 19.3141C15.2209 17.9078 16.5021 17.4703 17.9396 17.2828C18.7209 17.1891 20.8146 16.9703 21.1271 16.5953V18.2828C21.1271 19.7828 19.9396 21.2516 17.7521 21.2516ZM30.5511 22.8766C33.2073 22.8766 34.9573 21.2516 35.2698 19.1266H33.4261C33.0823 20.4391 31.9886 21.2203 30.5511 21.2203C28.3636 21.2203 26.9573 19.4078 26.9573 16.6266C26.9573 13.9078 28.3948 12.1266 30.5511 12.1266C32.1761 12.1266 33.1448 13.1266 33.4261 14.2203H35.2698C34.9573 11.9703 33.0511 10.4703 30.5198 10.4703C27.2698 10.4703 25.1136 13.0328 25.1136 16.6891C25.1136 20.2828 27.1761 22.8766 30.5511 22.8766ZM42.3364 22.8766C44.7739 22.8766 46.5552 21.6578 47.1177 19.8453L45.3364 19.3453C44.8677 20.5953 43.7817 21.2203 42.3364 21.2203C40.1723 21.2203 38.6802 19.8219 38.5942 17.2516H47.3052V16.4703C47.3052 12.0016 44.6489 10.4703 42.1489 10.4703C38.8989 10.4703 36.7427 13.0328 36.7427 16.7203C36.7427 20.4078 38.8677 22.8766 42.3364 22.8766ZM38.5942 15.6578C38.7192 13.7906 40.0395 12.1266 42.1489 12.1266C44.1489 12.1266 45.4302 13.6266 45.4302 15.6578H38.5942ZM49.6998 22.6266H51.4811V20.7828H51.6998C52.1061 21.4391 52.8873 22.8766 55.1998 22.8766C58.1998 22.8766 60.2936 20.4703 60.2936 16.6578C60.2936 12.8766 58.1998 10.4703 55.1686 10.4703C52.8248 10.4703 52.1061 11.9078 51.6998 12.5328H51.5436V6.62659H49.6998V22.6266ZM51.5123 16.6266C51.5123 13.9391 52.6998 12.1266 54.9498 12.1266C57.2936 12.1266 58.4498 14.0953 58.4498 16.6266C58.4498 19.1891 57.2623 21.2203 54.9498 21.2203C52.7311 21.2203 51.5123 19.3453 51.5123 16.6266ZM67.3289 22.8766C70.5789 22.8766 72.7664 20.4078 72.7664 16.6891C72.7664 12.9391 70.5789 10.4703 67.3289 10.4703C64.0789 10.4703 61.8914 12.9391 61.8914 16.6891C61.8914 20.4078 64.0789 22.8766 67.3289 22.8766ZM67.3289 21.2203C64.8602 21.2203 63.7352 19.0953 63.7352 16.6891C63.7352 14.2828 64.8602 12.1266 67.3289 12.1266C69.7977 12.1266 70.9227 14.2828 70.9227 16.6891C70.9227 19.0953 69.7977 21.2203 67.3289 21.2203ZM79.7959 22.8766C83.0459 22.8766 85.2334 20.4078 85.2334 16.6891C85.2334 12.9391 83.0459 10.4703 79.7959 10.4703C76.5459 10.4703 74.3584 12.9391 74.3584 16.6891C74.3584 20.4078 76.5459 22.8766 79.7959 22.8766ZM79.7959 21.2203C77.3271 21.2203 76.2021 19.0953 76.2021 16.6891C76.2021 14.2828 77.3271 12.1266 79.7959 12.1266C82.2646 12.1266 83.3896 14.2828 83.3896 16.6891C83.3896 19.0953 82.2646 21.2203 79.7959 21.2203ZM87.3878 22.6266H89.2316V18.1344L90.5206 16.9391L95.0128 22.6266H97.3566L91.9112 15.7516L96.9816 10.6266H94.7003L89.4503 15.9703H89.2316V6.62659H87.3878V22.6266Z" fill="black"/>
<path d="M101.065 23.1847H103.964V16.3878H110.612V13.9581H103.964V9.61438H111.315V7.18469H101.065V23.1847ZM115.999 7.18469H113.171V23.1847H115.999V7.18469ZM120.005 27.6613C122.208 27.6613 123.482 26.5206 124.161 24.6378L128.982 11.2003L125.958 11.1847L123.185 20.2472H123.06L120.294 11.1847H117.294L121.646 23.4347L121.404 24.0831C120.865 25.4113 120.052 25.5128 118.818 25.1613L118.161 27.3566C118.544 27.5206 119.232 27.6613 120.005 27.6613Z" fill="url(#paint0_linear)"/>
<defs>
<linearGradient id="paint0_linear" x1="180.415" y1="1.1847" x2="96.7625" y2="-33.8071" gradientUnits="userSpaceOnUse">
<stop stop-color="#8B3CE6"/>
<stop offset="1" stop-color="#406EFB"/>
</linearGradient>
</defs>
</svg>
