<svg width="23" height="23" viewBox="0 0 23 23" fill="none" xmlns="http://www.w3.org/2000/svg">
<path fill-rule="evenodd" clip-rule="evenodd" d="M1.59467 17.3454C0.550092 15.5788 0 13.5666 0 11.5C0 5.15878 5.15878 0 11.5 0C17.8412 0 23 5.15878 23 11.5C23 17.8412 17.8412 23 11.5 23C9.43336 23 7.42119 22.4499 5.65464 21.4053L0.0422794 22.9575L1.59467 17.3454Z" fill="#615CF4"/>
<path d="M10.6177 15.9412H12.3824V17.7059H10.6177V15.9412Z" fill="white"/>
<path d="M10.6177 12.0232V14.1765H11.5L12.0883 12.696L11.5 11.2155L10.6177 12.0232Z" fill="white"/>
<path d="M7.9707 8.82353H9.73541C9.73541 7.85042 10.527 7.05883 11.5001 7.05883L12.0884 6.17647L11.5001 5.29412C9.55388 5.29412 7.9707 6.8773 7.9707 8.82353Z" fill="white"/>
<path d="M11.5 5.29412V7.05883C12.4731 7.05883 13.2647 7.85042 13.2647 8.82353C13.2647 9.32468 13.0607 9.78723 12.6903 10.1262L11.5 11.2155V14.1765H12.3824V12.8003L13.8817 11.4281C14.611 10.7606 15.0294 9.81135 15.0294 8.82353C15.0294 6.8773 13.4462 5.29412 11.5 5.29412Z" fill="white"/>
</svg>
