<svg width="62" height="62" viewBox="0 0 62 62" fill="none" xmlns="http://www.w3.org/2000/svg">
<path d="M53.277 58.9216L61.0804 61.0804L58.922 53.277C60.8685 50.2809 62 46.7062 62 42.8672C62 32.3003 53.434 23.7344 42.8672 23.7344C32.3003 23.7344 23.7344 32.3003 23.7344 42.8672C23.7344 53.434 32.3003 62 42.8672 62C46.7062 62 50.2809 60.8685 53.277 58.9216Z" fill="white"/>
<path fill-rule="evenodd" clip-rule="evenodd" d="M3.28278 35.707C1.13242 32.0704 0 27.9282 0 23.6738C0 10.6198 10.6198 0 23.6738 0C36.7278 0 47.3477 10.6198 47.3477 23.6738C47.3477 36.7278 36.7278 47.3477 23.6738 47.3477C19.4195 47.3477 15.2772 46.2152 11.6406 44.0649L0.0870361 47.2601L3.28278 35.707Z" fill="#E1CCFF"/>
<path d="M21.8574 32.8164H25.4902V36.4492H21.8574V32.8164Z" fill="white"/>
<path d="M21.8574 24.7509V29.1836H23.6738L24.8848 26.1359L23.6738 23.0882L21.8574 24.7509Z" fill="white"/>
<path d="M16.4082 18.1641H20.041C20.041 16.1608 21.6706 14.5312 23.6738 14.5312L24.8848 12.7148L23.6738 10.8984C19.6673 10.8984 16.4082 14.1576 16.4082 18.1641Z" fill="white"/>
<path d="M23.6738 10.8984V14.5312C25.6771 14.5312 27.3066 16.1608 27.3066 18.1641C27.3066 19.1957 26.8866 20.1479 26.1241 20.8456L23.6738 23.0882V29.1836H25.4902V26.3507L28.5767 23.5258C30.0781 22.1516 30.9395 20.1976 30.9395 18.1641C30.9395 14.1576 27.6803 10.8984 23.6738 10.8984Z" fill="white"/>
</svg>
