<svg width="140" height="140" viewBox="0 0 140 140" fill="none" xmlns="http://www.w3.org/2000/svg">
<circle cx="70" cy="70" r="67.5" stroke="url(#paint0_linear)" stroke-width="5"/>
<path d="M77.9386 28C75.2886 28 72.6386 28.2409 70.109 28.7227C89.8033 32.3966 104.679 49.6216 104.679 70.4C104.679 85.1557 92.6942 97.1409 77.9386 97.1409C63.1829 97.1409 51.1977 85.1557 51.1977 70.4C51.1977 58.4148 59.0874 48.2364 69.9886 44.8636V44.8034C67.5795 44.0807 64.9897 43.6591 62.2795 43.6591C47.5238 43.6591 35.5386 55.6443 35.5386 70.4C35.5386 93.8284 54.5102 112.8 77.9386 112.8C101.367 112.8 120.339 93.8284 120.339 70.4C120.339 46.9716 101.307 28 77.9386 28Z" fill="white"/>
<path opacity="0.4" d="M62.4 28C38.9716 28 20 46.9716 20 70.4C20 93.8284 38.9716 112.8 62.4 112.8C65.05 112.8 67.7 112.559 70.2295 112.077C50.5352 108.403 35.6591 91.1784 35.6591 70.4C35.6591 55.6443 47.6443 43.6591 62.4 43.6591C77.1557 43.6591 89.1409 55.6443 89.1409 70.4C89.1409 82.3852 81.2511 92.5636 70.35 95.9364V95.9966C72.7591 96.7193 75.3489 97.1409 78.0591 97.1409C92.8148 97.1409 104.8 85.1557 104.8 70.4C104.8 46.9716 85.8284 28 62.4 28Z" fill="white"/>
<defs>
<linearGradient id="paint0_linear" x1="105.66" y1="-5.08471e-06" x2="6" y2="98" gradientUnits="userSpaceOnUse">
<stop stop-color="white"/>
<stop offset="1" stop-color="white" stop-opacity="0"/>
</linearGradient>
</defs>
</svg>
