<svg width="1080" height="508" viewBox="0 0 1080 508" fill="none" xmlns="http://www.w3.org/2000/svg">
<g style="mix-blend-mode:multiply" opacity="0.5">
<path d="M623.327 -202.426C594.817 -202.426 566.307 -199.834 539.094 -194.651C750.973 -155.126 911.016 30.1873 911.016 253.729C911.016 412.477 782.074 541.418 623.327 541.418C464.579 541.418 335.638 412.477 335.638 253.729C335.638 124.788 420.519 15.2845 537.798 -21.0006V-21.6486C511.88 -29.4239 484.018 -33.9595 454.86 -33.9595C296.113 -33.9595 167.171 94.9821 167.171 253.729C167.171 505.781 371.275 709.885 623.327 709.885C875.379 709.885 1079.48 505.781 1079.48 253.729C1079.48 1.67757 874.731 -202.426 623.327 -202.426Z" fill="url(#paint0_linear)"/>
</g>
<g style="mix-blend-mode:multiply" opacity="0.2">
<path d="M456.156 -202.426C204.104 -202.426 0 1.67757 0 253.729C0 505.781 204.104 709.885 456.156 709.885C484.665 709.885 513.175 707.293 540.389 702.109C328.51 662.585 168.466 477.271 168.466 253.729C168.466 94.9821 297.408 -33.9595 456.156 -33.9595C614.903 -33.9595 743.844 94.9821 743.844 253.729C743.844 382.671 658.963 492.174 541.685 528.459V529.107C567.603 536.883 595.464 541.418 624.622 541.418C783.369 541.418 912.311 412.477 912.311 253.729C912.311 1.67757 708.207 -202.426 456.156 -202.426Z" fill="url(#paint1_linear)"/>
</g>
<defs>
<linearGradient id="paint0_linear" x1="1092.3" y1="-101.057" x2="182.646" y2="-85.447" gradientUnits="userSpaceOnUse">
<stop stop-color="#D251FF"/>
<stop offset="1" stop-color="#423DDF"/>
</linearGradient>
<linearGradient id="paint1_linear" x1="925.133" y1="-101.057" x2="15.4751" y2="-85.447" gradientUnits="userSpaceOnUse">
<stop stop-color="#E6A0FF"/>
<stop offset="1" stop-color="#615CF4"/>
</linearGradient>
</defs>
</svg>
