<svg width="52" height="38" viewBox="0 0 52 38" fill="none" xmlns="http://www.w3.org/2000/svg">
<g filter="url(#filter0_d)">
<path fill-rule="evenodd" clip-rule="evenodd" d="M3 5C3 3.34315 4.34315 2 6 2L46 2C47.6569 2 49 3.34315 49 5V31C49 32.6569 47.6569 34 46 34H6C4.34315 34 3 32.6569 3 31V5Z" fill="white"/>
<path d="M3.5 5C3.5 3.61929 4.61929 2.5 6 2.5H46C47.3807 2.5 48.5 3.61929 48.5 5V31C48.5 32.3807 47.3807 33.5 46 33.5H6C4.61929 33.5 3.5 32.3807 3.5 31V5Z" stroke="#DFE3E8" stroke-opacity="0.75"/>
</g>
<path fill-rule="evenodd" clip-rule="evenodd" d="M20.5 20.2134C20.1289 20.2134 19.8042 20.0897 19.5259 19.8423C19.2476 19.5949 19.1084 19.2547 19.1084 18.8218C19.1084 18.4383 19.2429 18.1121 19.512 17.843C19.781 17.574 20.1103 17.4395 20.5 17.4395C20.8897 17.4395 21.2221 17.574 21.4973 17.843C21.7725 18.1121 21.9102 18.4383 21.9102 18.8218C21.9102 19.2609 21.7679 19.6026 21.4834 19.8469C21.1989 20.0912 20.8711 20.2134 20.5 20.2134Z" fill="#6D777B"/>
<path fill-rule="evenodd" clip-rule="evenodd" d="M15.1729 20.2134C14.8018 20.2134 14.4786 20.0912 14.2034 19.8469C13.9281 19.6026 13.7905 19.2609 13.7905 18.8218C13.7905 18.4321 13.9235 18.1043 14.1895 17.8384C14.4554 17.5724 14.7832 17.4395 15.1729 17.4395C15.5625 17.4395 15.8949 17.574 16.1702 17.843C16.4454 18.1121 16.583 18.4383 16.583 18.8218C16.583 19.2609 16.4408 19.6026 16.1562 19.8469C15.8717 20.0912 15.5439 20.2134 15.1729 20.2134Z" fill="#6D777B"/>
<path fill-rule="evenodd" clip-rule="evenodd" d="M25.8271 20.2134C25.4622 20.2134 25.1391 20.0897 24.8577 19.8423C24.5763 19.5949 24.4355 19.2547 24.4355 18.8218C24.4355 18.4383 24.5701 18.1121 24.8391 17.843C25.1082 17.574 25.4375 17.4395 25.8271 17.4395C26.2168 17.4395 26.5492 17.574 26.8245 17.843C27.0997 18.1121 27.2373 18.4383 27.2373 18.8218C27.2373 19.2547 27.0966 19.5949 26.8152 19.8423C26.5338 20.0897 26.2044 20.2134 25.8271 20.2134Z" fill="#6D777B"/>
<path d="M36.5 19.9393L39.3014 17.0417C39.4841 16.8528 39.7817 16.8528 39.9644 17.0417L39.9644 17.0417C40.1452 17.2288 40.1452 17.5307 39.9644 17.7178L39.9644 17.7178L36.8315 20.9583L36.8315 20.9583L36.7596 20.8888C36.6879 20.9629 36.5939 21 36.5 21C36.4061 21 36.3121 20.9629 36.2404 20.8888L36.5 19.9393ZM36.5 19.9393L33.6986 17.0417L33.6273 17.1107L33.6986 17.0417C33.5159 16.8528 33.2183 16.8528 33.0356 17.0417C32.8548 17.2288 32.8548 17.5307 33.0356 17.7178L36.1685 20.9583L36.5 19.9393Z" fill="#8FA4B5" stroke="#8FA4B5" stroke-width="0.2"/>
<defs>
<filter id="filter0_d" x="0" y="0" width="52" height="38" filterUnits="userSpaceOnUse" color-interpolation-filters="sRGB">
<feFlood flood-opacity="0" result="BackgroundImageFix"/>
<feColorMatrix in="SourceAlpha" type="matrix" values="0 0 0 0 0 0 0 0 0 0 0 0 0 0 0 0 0 0 127 0"/>
<feOffset dy="1"/>
<feGaussianBlur stdDeviation="1.5"/>
<feColorMatrix type="matrix" values="0 0 0 0 0 0 0 0 0 0 0 0 0 0 0 0 0 0 0.1 0"/>
<feBlend mode="normal" in2="BackgroundImageFix" result="effect1_dropShadow"/>
<feBlend mode="normal" in="SourceGraphic" in2="effect1_dropShadow" result="shape"/>
</filter>
</defs>
</svg>
