<svg width="150" height="150" viewBox="0 0 150 150" fill="none" xmlns="http://www.w3.org/2000/svg">
<circle cx="75" cy="75" r="75" fill="url(#paint0_linear)"/>
<path d="M84.8801 23.0063C81.5601 23.0063 78.2402 23.3081 75.0711 23.9117C99.7446 28.5145 118.382 50.0944 118.382 76.1261C118.382 94.6125 103.366 109.628 84.8801 109.628C66.3938 109.628 51.3784 94.6125 51.3784 76.1261C51.3784 61.1107 61.2629 48.3589 74.9202 44.1335V44.058C71.902 43.1526 68.6575 42.6244 65.262 42.6244C46.7757 42.6244 31.7603 57.6398 31.7603 76.1261C31.7603 105.478 55.5284 129.246 84.8801 129.246C114.232 129.246 138 105.478 138 76.1261C138 46.7744 114.156 23.0063 84.8801 23.0063Z" fill="url(#paint1_linear)"/>
<path opacity="0.4" d="M65.4128 23.0063C36.0611 23.0063 12.293 46.7744 12.293 76.1261C12.293 105.478 36.0611 129.246 65.4128 129.246C68.7328 129.246 72.0528 128.944 75.2219 128.341C50.5483 123.738 31.9111 102.158 31.9111 76.1261C31.9111 57.6398 46.9265 42.6244 65.4128 42.6244C83.8992 42.6244 98.9146 57.6398 98.9146 76.1261C98.9146 91.1416 89.0301 103.893 75.3728 108.119V108.194C78.391 109.1 81.6355 109.628 85.031 109.628C103.517 109.628 118.533 94.6125 118.533 76.1261C118.533 46.7744 94.7646 23.0063 65.4128 23.0063Z" fill="url(#paint2_linear)"/>
<defs>
<linearGradient id="paint0_linear" x1="104.297" y1="19.9218" x2="-13.8984" y2="43.63" gradientUnits="userSpaceOnUse">
<stop stop-color="#8B3CE6"/>
<stop offset="1" stop-color="#406EFB"/>
</linearGradient>
<linearGradient id="paint1_linear" x1="84.8466" y1="196.175" x2="84.8466" y2="33.4865" gradientUnits="userSpaceOnUse">
<stop stop-color="#D55EFF"/>
<stop offset="1" stop-color="#FECDFF"/>
</linearGradient>
<linearGradient id="paint2_linear" x1="65.3793" y1="196.175" x2="65.3793" y2="33.4865" gradientUnits="userSpaceOnUse">
<stop stop-color="#D55EFF"/>
<stop offset="1" stop-color="#FECDFF"/>
</linearGradient>
</defs>
</svg>
