<svg width="60" height="60" viewBox="0 0 60 60" fill="none" xmlns="http://www.w3.org/2000/svg">
<rect width="60" height="60" fill="#E5E5E5"/>
<g clip-path="url(#clip0)">
<rect width="1534" height="881" transform="translate(-809 -193)" fill="#F9F9F8"/>
<g filter="url(#filter0_d)">
<path d="M-718 -60C-718 -64.4183 -714.418 -68 -710 -68H627C631.418 -68 635 -64.4183 635 -60V115C635 119.418 631.418 123 627 123H-710C-714.418 123 -718 119.418 -718 115V-60Z" fill="white"/>
</g>
<g opacity="0.22">
<path d="M60 30C60 46.5685 46.5685 60 30 60C13.4315 60 0 46.5685 0 30C0 13.4315 13.4315 0 30 0C46.5685 0 60 13.4315 60 30Z" fill="#5D5CF4"/>
<path d="M26.6606 36.8495C26.6606 37.7242 27.3805 38.44 28.2603 38.44H36.5548L35.491 43.49C35.467 43.6093 35.451 43.7366 35.451 43.8638C35.451 44.3568 35.651 44.8022 35.9789 45.1283L37.2507 46.3928L45.1532 38.5354C45.5851 38.106 45.8571 37.5095 45.8571 36.8495V26.5108C45.8571 25.1906 44.7853 24.125 43.4575 24.125L32.6595 24.125C31.6677 24.125 30.8119 24.7214 30.4519 25.5803L26.8286 33.9944C26.7246 34.2648 26.6606 34.5511 26.6606 34.8612L26.6606 36.8495Z" fill="#5D5CF4"/>
<path d="M34.3393 22.1505C34.3393 21.2758 33.6194 20.56 32.7396 20.56H24.4451L25.5089 15.51C25.5329 15.3907 25.5489 15.2634 25.5489 15.1362C25.5489 14.6432 25.3489 14.1978 25.021 13.8717L23.7492 12.6072L15.8467 20.4646C15.4148 20.894 15.1428 21.4905 15.1428 22.1505V32.4892C15.1428 33.8094 16.2146 34.875 17.5424 34.875H28.3404C29.3322 34.875 30.188 34.2786 30.548 33.4197L34.1713 25.0056C34.2753 24.7352 34.3393 24.4489 34.3393 24.1388V22.1505Z" fill="#5D5CF4"/>
</g>
<path d="M26.5178 38.2423C26.5178 39.1171 27.2377 39.8328 28.1175 39.8328L36.412 39.8328L35.3482 44.8828C35.3242 45.0021 35.3082 45.1294 35.3082 45.2566C35.3082 45.7496 35.5082 46.195 35.8361 46.5211L37.1079 47.7856L45.0103 39.9283C45.4423 39.4988 45.7142 38.9023 45.7142 38.2423L45.7142 27.9036C45.7142 26.5834 44.6425 25.5178 43.3147 25.5178L32.5167 25.5178C31.5249 25.5178 30.669 26.1142 30.3091 26.9731L26.6858 35.3872C26.5818 35.6576 26.5178 35.9439 26.5178 36.2541L26.5178 38.2423Z" fill="#575FF5" fill-opacity="0.4"/>
<path d="M34.1964 23.5434C34.1964 22.6686 33.4766 21.9528 32.5968 21.9528H24.3022L25.3661 16.9028C25.3901 16.7835 25.406 16.6563 25.406 16.5291C25.406 16.036 25.2061 15.5906 24.8781 15.2646L23.6064 14L15.7039 21.8574C15.272 22.2868 15 22.8833 15 23.5434V33.882C15 35.2022 16.0718 36.2679 17.3996 36.2679H28.1975C29.1894 36.2679 30.0452 35.6714 30.4051 34.8125L34.0285 26.3985C34.1325 26.128 34.1964 25.8417 34.1964 25.5316V23.5434Z" fill="#575FF5"/>
</g>
<defs>
<filter id="filter0_d" x="-721" y="-70" width="1359" height="197" filterUnits="userSpaceOnUse" color-interpolation-filters="sRGB">
<feFlood flood-opacity="0" result="BackgroundImageFix"/>
<feColorMatrix in="SourceAlpha" type="matrix" values="0 0 0 0 0 0 0 0 0 0 0 0 0 0 0 0 0 0 127 0"/>
<feOffset dy="1"/>
<feGaussianBlur stdDeviation="1.5"/>
<feColorMatrix type="matrix" values="0 0 0 0 0 0 0 0 0 0 0 0 0 0 0 0 0 0 0.15 0"/>
<feBlend mode="normal" in2="BackgroundImageFix" result="effect1_dropShadow"/>
<feBlend mode="normal" in="SourceGraphic" in2="effect1_dropShadow" result="shape"/>
</filter>
<clipPath id="clip0">
<rect width="1534" height="881" fill="white" transform="translate(-809 -193)"/>
</clipPath>
</defs>
</svg>
